0
SECTION
2
HEADER
9
$INSUNITS
70
4
9
$ACADVER
1
AC1014
9
$HANDSEED
5
FFFF
0
ENDSEC
0
SECTION
2
TABLES
0
TABLE
2
VPORT
5
8
100
AcDbSymbolTable
0
ENDTAB
0
TABLE
2
LTYPE
5
5
100
AcDbSymbolTable
0
LTYPE
5
14
100
AcDbSymbolTableRecord
100
AcDbLinetypeTableRecord
2
BYBLOCK
70
0
0
LTYPE
5
15
100
AcDbSymbolTableRecord
100
AcDbLinetypeTableRecord
2
BYLAYER
70
0
0
LTYPE
5
16
100
AcDbSymbolTableRecord
100
AcDbLinetypeTableRecord
2
DASHED
70
0
3
Dashed __ __ __ __ __ __ __ __ __ __ __ __ __ _
72
65
73
2
40
0.75
49
0.5
74
0
49
-0.25
74
0
0
ENDTAB
0
TABLE
2
LAYER
5
2
100
AcDbSymbolTable
70
3
0
LAYER
5
50
100
AcDbSymbolTableRecord
100
AcDbLayerTableRecord
2
1
70
0
62
7
6
DASHED
0
LAYER
5
51
100
AcDbSymbolTableRecord
100
AcDbLayerTableRecord
2
0
70
0
62
7
6
CONTINUOUS
0
ENDTAB
0
TABLE
2
STYLE
5
3
100
AcDbSymbolTable
70
1
0
STYLE
5
11
100
AcDbSymbolTableRecord
100
AcDbTextStyleTableRecord
2
STANDARD
70
0
0
ENDTAB
0
TABLE
2
VIEW
5
6
100
AcDbSymbolTable
70
0
0
ENDTAB
0
TABLE
2
UCS
5
7
100
AcDbSymbolTable
70
0
0
ENDTAB
0
TABLE
2
APPID
5
9
100
AcDbSymbolTable
70
2
0
APPID
5
12
100
AcDbSymbolTableRecord
100
AcDbRegAppTableRecord
2
ACAD
70
0
0
ENDTAB
0
TABLE
2
DIMSTYLE
5
A
100
AcDbSymbolTable
70
1
0
ENDTAB
0
TABLE
2
BLOCK_RECORD
5
1
100
AcDbSymbolTable
70
1
0
BLOCK_RECORD
5
1F
100
AcDbSymbolTableRecord
100
AcDbBlockTableRecord
2
*MODEL_SPACE
0
BLOCK_RECORD
5
1B
100
AcDbSymbolTableRecord
100
AcDbBlockTableRecord
2
*PAPER_SPACE
0
ENDTAB
0
ENDSEC
0
SECTION
2
BLOCKS
0
BLOCK
5
20
100
AcDbEntity
100
AcDbBlockBegin
2
*MODEL_SPACE
0
ENDBLK
5
21
100
AcDbEntity
100
AcDbBlockEnd
0
BLOCK
5
1C
100
AcDbEntity
100
AcDbBlockBegin
2
*PAPER_SPACE
0
ENDBLK
5
1D
100
AcDbEntity
100
AcDbBlockEnd
0
ENDSEC
0
SECTION
2
ENTITIES
0
LWPOLYLINE
5
100
100
AcDbEntity
8
0
100
AcDbPolyline
90
4
70
1
43
0.0
10
-193.73719305764575
20
-94.196344800633057
10
-193.73719305764575
20
-122.19634480063309
10
-191.73719305764575
20
-122.19634480063309
10
-191.7371930576457
20
-94.196344800633057
0
LINE
5
101
100
AcDbEntity
8
0
100
AcDbLine
10
-201.23719305764567
20
-80.67006535900417
30
-5.5442522165004359e-14
11
-198.73719305764567
21
-85.000192377926396
31
-5.4761129264165527e-14
0
LINE
5
102
100
AcDbEntity
8
0
100
AcDbLine
10
-111.46924386521462
20
-93.196344800633057
30
-3.0777826687957993e-14
11
-106.73719305764578
21
-85.000192377926368
31
-2.9465391537368536e-14
0
LINE
5
103
100
AcDbEntity
8
0
100
AcDbLine
10
-106.73719305764578
20
-85.000192377926368
30
-2.9465391537368536e-14
11
-104.2371930576458
21
-80.670065359004184
31
-2.8772016083490145e-14
0
LINE
5
104
100
AcDbEntity
8
0
100
AcDbLine
10
-105.96924386521471
20
-79.67006535900417
30
-2.9246866185247182e-14
11
-104.2371930576458
21
-80.670065359004184
31
-2.8772016083490145e-14
0
LINE
5
105
100
AcDbEntity
8
0
100
AcDbLine
10
-201.23719305764567
20
-80.67006535900417
30
-5.5442522165004359e-14
11
-199.50514225007677
21
-79.670065359004184
31
-5.4964904811158141e-14
0
LINE
5
106
100
AcDbEntity
8
0
100
AcDbLine
10
-197.0051422500768
20
-84.000192377926396
30
-5.4283511910319309e-14
11
-199.5051422500768
21
-79.670065359004184
31
-5.4964904811158141e-14
0
LINE
5
107
100
AcDbEntity
8
0
100
AcDbLine
10
-113.2012946727835
20
-92.196344800633071
30
-3.1252676789715031e-14
11
-108.46924386521466
21
-84.000192377926396
31
-2.9940241639125567e-14
0
LINE
5
108
100
AcDbEntity
8
0
100
AcDbLine
10
-105.96924386521471
20
-79.67006535900417
30
-2.9246866185247182e-14
11
-108.46924386521466
21
-84.000192377926396
31
-2.9940241639125567e-14
0
LINE
5
109
100
AcDbEntity
8
0
100
AcDbLine
10
-197.0051422500768
20
-84.000192377926396
30
-5.4283511910319309e-14
11
-108.46924386521466
21
-84.000192377926396
31
-2.9940241639125567e-14
0
LINE
5
110
100
AcDbEntity
8
0
100
AcDbLine
10
-203.96924386521448
20
-79.938014551435245
30
-5.6158948195773697e-14
11
-201.04659413440396
21
-85.000192377926396
31
-5.4761129264165527e-14
0
LINE
5
111
100
AcDbEntity
8
0
100
AcDbLine
10
-203.96924386521448
20
-79.938014551435245
30
-5.6158948195773697e-14
11
-200.04104063493909
21
-77.670065359004241
31
-5.5373740551661428e-14
0
LINE
5
112
100
AcDbEntity
8
0
100
AcDbLine
10
-104.42779198088728
20
-85.000192377926368
30
-2.9465391537368536e-14
11
-101.50514225007691
21
-79.938014551435288
31
-2.8059740930854605e-14
0
LINE
5
113
100
AcDbEntity
8
0
100
AcDbLine
10
-105.43334548035247
20
-77.670065359004141
30
-2.8830840912920152e-14
11
-101.50514225007691
21
-79.938014551435288
31
-2.8059740930854605e-14
0
LINE
5
114
100
AcDbEntity
8
0
100
AcDbLine
10
-106.73719305764578
20
-85.000192377926368
30
-2.9465391537368536e-14
11
-104.42779198088728
21
-85.000192377926368
31
-2.9465391537368536e-14
0
LINE
5
115
100
AcDbEntity
8
0
100
AcDbLine
10
-198.73719305764567
20
-85.000192377926396
30
-5.4761129264165527e-14
11
-201.04659413440396
21
-85.000192377926396
31
-5.4761129264165527e-14
0
LINE
5
116
100
AcDbEntity
8
0
100
AcDbLine
10
-200.04104063493909
20
-77.670065359004241
30
-5.5373740551661428e-14
11
-105.43334548035247
21
-77.670065359004141
31
-2.8830840912920152e-14
0
LINE
5
117
100
AcDbEntity
8
0
100
AcDbLine
10
-199.50514225007677
20
-79.670065359004184
30
-5.4964904811158141e-14
11
-105.96924386521471
21
-79.67006535900417
31
-2.9246866185247182e-14
0
ENDSEC
0
SECTION
2
OBJECTS
0
DICTIONARY
5
C
100
AcDbDictionary
3
ACAD_GROUP
350
D
3
ACAD_MLINESTYLE
350
17
0
DICTIONARY
5
D
100
AcDbDictionary
0
DICTIONARY
5
1A
330
C
100
AcDbDictionary
0
DICTIONARY
5
17
100
AcDbDictionary
0
ENDSEC
0
EOF
